HIERARCHY
ROOT Hips
{
  OFFSET -35.4901 99.2528 17.4586
  CHANNELS 6 Xposition Yposition Zposition Zrotation Xrotation Yrotation
  JOINT LeftUpLeg
  {
    OFFSET 8.64259 1.95398 -2.38835
    CHANNELS 3 Zrotation Xrotation Yrotation
    JOINT LeftLeg
    {
      OFFSET 43.7702 0 0
      CHANNELS 3 Zrotation Xrotation Yrotation
      JOINT LeftFoot
      {
        OFFSET 40.6238 0 0
        CHANNELS 3 Zrotation Xrotation Yrotation
        JOINT LeftToeBase
        {
          OFFSET 12.7242 0 0
          CHANNELS 3 Zrotation Xrotation Yrotation
          End Site
          {
            OFFSET 0 0 0
          }
        }
      }
    }
  }
  JOINT RightUpLeg
  {
    OFFSET -8.2249 1.95398 -2.59336
    CHANNELS 3 Zrotation Xrotation Yrotation
    JOINT RightLeg
    {
      OFFSET 43.5653 0 0
      CHANNELS 3 Zrotation Xrotation Yrotation
      JOINT RightFoot
      {
        OFFSET 40.6238 0 0
        CHANNELS 3 Zrotation Xrotation Yrotation
        JOINT RightToeBase
        {
          OFFSET 12.7242 0 0
          CHANNELS 3 Zrotation Xrotation Yrotation
          End Site
          {
            OFFSET 0 0 0
          }
        }
      }
    }
  }
  JOINT Spine
  {
    OFFSET 0.165834 0.87714 6.61349
    CHANNELS 3 Zrotation Xrotation Yrotation
    JOINT Spine1
    {
      OFFSET 7.38963 1.71661e-005 0
      CHANNELS 3 Zrotation Xrotation Yrotation
      JOINT Spine2
      {
        OFFSET 11.9445 1.14441e-005 0
        CHANNELS 3 Zrotation Xrotation Yrotation
        JOINT Spine3
        {
          OFFSET 14.7254 4.19617e-005 0
          CHANNELS 3 Zrotation Xrotation Yrotation
          JOINT Spine4
          {
            OFFSET 10.9679 0 0
            CHANNELS 3 Zrotation Xrotation Yrotation
            JOINT RightShoulder
            {
              OFFSET 2.46616 -1.6653 3.69651
              CHANNELS 3 Zrotation Xrotation Yrotation
              JOINT RightArm
              {
                OFFSET 13.0012 0 0
                CHANNELS 3 Zrotation Xrotation Yrotation
                JOINT RightForeArm
                {
                  OFFSET 28.7848 1.52588e-005 0
                  CHANNELS 3 Zrotation Xrotation Yrotation
                  JOINT RightHand
                  {
                    OFFSET 26.5688 1.52588e-005 0
                    CHANNELS 3 Zrotation Xrotation Yrotation
                    End Site
                    {
                      OFFSET 0 0 0
                    }
                  }
                }
              }
            }
            JOINT LeftShoulder
            {
              OFFSET 2.38034 -1.29275 -3.7523
              CHANNELS 3 Zrotation Xrotation Yrotation
              JOINT LeftArm
              {
                OFFSET 16.3182 6.10351e-005 0
                CHANNELS 3 Zrotation Xrotation Yrotation
                JOINT LeftForeArm
                {
                  OFFSET 27.0901 0 0
                  CHANNELS 3 Zrotation Xrotation Yrotation
                  JOINT LeftHand
                  {
                    OFFSET 24.5451 1.52588e-005 0
                    CHANNELS 3 Zrotation Xrotation Yrotation
                    End Site
                    {
                      OFFSET 0 0 0
                    }
                  }
                }
              }
            }
            JOINT Neck
            {
              OFFSET 5.0226 -0.0266342 0
              CHANNELS 3 Zrotation Xrotation Yrotation
              JOINT Head
              {
                OFFSET 6.69364 2.86102e-005 0
                CHANNELS 3 Zrotation Xrotation Yrotation
                End Site
                {
                  OFFSET 0 0 0
                }
              }
            }
          }
        }
      }
    }
  }
}
MOTION
Frames:	18
Frame Time:	0.0416667
39.5562 50.9495 15.6202 -9.77327 -52.697 -14.8202 -59.6405 66.3785 0.424898 -139.294 13.2638 10.2005 98.6953 15.9565 -3.71186 44.4487 6.23535 -16.5235 118.062 83.0436 125.975 -132.597 -15.7728 -1.65392 120.841 -25.7216 6.58001 40.8661 -2.46967 7.18731 0.576646 13.5386 -90.0088 -0.204655 1.14642 0.0410637 -11.8751 1.14711 -0.00944257 -34.4139 1.08107 0.383744 -14.4012 1.08107 0.383744 94.0123 -4.08769 -110.349 -11.2747 13.8149 -34.8169 -0.749786 -24.0112 -13.5786 -80.8713 -10.1179 6.62807 -84.4563 -9.8066 78.3742 0.931294 -16.8919 -70.7591 6.85558 14.7079 -7.43673 58.6563 3.09171 1.01681 13.1178 -2.17951 -10.0274 -1.01122 0.433477 7.34423 
40.2027 48.7325 12.4401 -13.5604 -56.501 -16.7336 -57.082 64.4817 -1.06644 -142.612 9.40942 10.4124 100.993 17.8244 -1.00209 49.8892 4.01664 -13.7965 110.946 83.0469 131.394 -135.706 -19.1818 -1.8939 121.821 -26.0684 7.06198 37.4423 -3.1733 9.45457 0.426292 13.2606 -90.2415 0.35368 0.760453 -0.436215 -11.3171 0.740519 -0.469278 -33.8539 0.856392 -0.187494 -13.8413 0.856391 -0.187494 93.4497 0.692281 -116.77 -7.1173 13.828 -33.9372 0.278471 -28.1008 -9.71844 -70.7962 -9.72761 8.31208 -87.1357 -19.3755 75.4058 9.04015 -16.8137 -65.3281 5.24218 14.5892 -8.54545 52.9026 3.38053 2.25341 -3.00636 0.13139 -0.591398 11.4779 0.238406 0.351873 
40.5216 46.8777 8.69328 -16.0149 -59.8785 -18.9191 -50.3965 62.5274 -5.08953 -145.226 8.98723 11.0265 102.337 17.1983 -4.47647 40.5539 6.40305 -15.1078 98.8807 83.1456 141.287 -137.603 -23.1077 -2.07174 124.08 -26.9909 8.15197 33.1959 -3.78937 10.8755 0.178615 12.9875 -90.3584 0.898589 0.22156 -0.690126 -10.7725 0.190968 -0.699229 -33.3067 0.418713 -0.59164 -13.294 0.418727 -0.591645 90.9017 -0.327321 -124.686 -14.5103 10.2871 -29.4593 3.96897 -28.953 -6.39579 -65.9122 -8.38511 7.41387 -89.6381 -28.3036 73.447 13.6545 -17.6256 -64.6655 3.93956 18.3443 -5.91421 50.5738 2.1676 0.159543 -13.9036 -0.00771446 8.79661 19.9856 -1.48177 -6.50671 
40.5926 45.1229 4.95534 -17.6538 -63.1332 -20.9735 -46.8217 59.6744 -6.97963 -147.306 10.5418 11.5162 102.879 18.0892 -3.1483 32.8602 8.01345 -14.9815 80.4245 82.6504 157.429 -139.454 -23.8313 -2.42804 127.408 -26.2952 11.8456 29.362 -3.91538 10.6641 0.0828085 12.9634 -90.3325 0.94683 0.0399786 -0.645881 -10.7243 0.0115067 -0.647027 -33.2583 0.232237 -0.604014 -13.2456 0.232238 -0.604028 90.1643 1.209 -129.28 -16.8572 8.59322 -25.6668 4.61825 -27.8714 -5.33307 -62.9925 -8.55146 8.59797 -90.4127 -30.0614 72.5579 13.1395 -19.5379 -66.6777 4.10222 23.512 -2.80141 45.2428 2.29979 1.2045 -12.95 -0.285855 11.873 20.5126 -2.45738 -9.11914 
40.5633 43.5228 1.44614 -19.5967 -67.476 -23.0605 -43.5006 58.626 -8.31494 -148.477 9.57948 11.7358 103.97 16.8539 -7.75208 21.6893 9.61107 -13.4477 71.7152 81.4109 163.667 -141.243 -25.2985 -2.72886 128.403 -26.4027 13.0224 22.8438 -5.13787 12.6545 0.0635918 13.2607 -90.3368 0.351712 0.00143219 -0.653816 -11.3194 -0.0273397 -0.653254 -33.8535 0.197861 -0.623166 -13.8408 0.19787 -0.623167 89.102 -6.81091 -123.002 -24.311 10.7114 -36.5734 8.97886 -35.2128 -0.792927 -55.8521 -8.16655 9.67988 -89.878 -26.6478 72.34 11.4405 -20.8989 -67.8909 6.51214 30.4589 -2.43671 28.116 0.639876 -1.97985 -3.19446 0.50636 9.84224 14.1703 -1.62582 -7.05945 
41.1899 42.2568 -1.76574 -6.97852 -74.3289 -12.6727 -50.3139 55.7244 -5.35597 -148.357 10.074 11.9378 103.221 16.3406 -8.31163 11.8297 9.41165 -10.2688 63.7677 84.2987 163.27 -143.173 -29.0234 -2.69004 128.133 -25.6931 14.5217 15.6427 -5.0751 11.5015 -0.496773 13.7401 -90.4378 -0.612578 -1.14897 -0.915345 -12.2833 -1.18813 -0.863898 -34.8182 -0.820772 -1.21832 -14.8056 -0.820772 -1.21833 96.5117 12.3988 -119.851 -5.33735 13.4304 -34.9065 3.03451 -35.4847 -4.61134 -46.9817 -4.68915 4.37749 -88.5713 -21.2155 72.9411 7.58803 -22.7047 -69.3673 8.09133 35.712 -2.60856 35.0935 2.9107 4.46423 10.1431 1.2136 3.97375 5.11402 0.160879 -1.9177 
40.237 40.6146 -4.89329 -18.7919 -74.7555 -22.1653 -37.3711 54.4168 -13.5715 -149.789 11.3262 12.3722 101.939 15.306 -9.32915 4.25082 11.0842 -10.1374 54.3804 77.1555 177.746 -144.106 -25.7542 -3.48156 128.669 -27.0752 12.8064 11.4858 -5.92022 12.5195 0.0765724 13.9106 -90.3921 -0.94799 0.0112009 -0.760106 -12.6192 -0.0222667 -0.75988 -35.1526 0.239115 -0.721604 -15.1399 0.239121 -0.721618 92.8526 0.865468 -118.994 -20.9444 14.1119 -32.5926 1.97363 -36.5659 -7.88439 -41.9877 -3.49793 2.31085 -87.1988 -14.9746 73.4319 2.78148 -23.925 -70.84 12.9447 41.0417 -6.12308 28.0617 3.12228 7.33618 22.6622 0.288285 -2.09109 -2.59297 0.961148 2.77935 
39.7509 39.6889 -7.38011 -24.4211 -75.9673 -26.9186 -31.7497 52.7646 -17.2243 -150.144 13.4001 12.7467 100.591 15.1935 -7.84793 -4.15607 12.1441 -9.18211 51.9887 73.0063 -177.911 -144.194 -24.3397 -3.93862 127.372 -27.5904 10.9226 8.90905 -7.37839 14.6767 0.358727 14.0782 -90.36 -1.28154 0.58559 -0.659977 -12.9525 0.555972 -0.685121 -35.4881 0.756862 -0.453475 -15.4755 0.756864 -0.453481 94.7651 2.72909 -113.923 -15.6386 16.5 -34.8341 -5.15285 -37.3282 -16.1545 -41.7163 -3.54386 2.40255 -87.1123 -12.7527 72.6266 -2.82878 -24.8126 -71.4866 19.1169 35.6951 -13.0946 22.4779 2.38358 6.83584 29.0639 -1.07616 -6.58364 -4.57499 1.39679 6.38586 
39.6945 39.3408 -9.46115 -25.1942 -78.0121 -27.7967 -31.3642 50.5337 -17.7887 -149.827 15.0034 13.1419 97.2622 14.9637 -4.50511 -4.8612 9.70007 -6.76578 48.8492 71.2051 -175.709 -144.023 -24.8038 -4.19567 124.823 -27.1756 9.74098 6.50124 -7.58421 14.5968 0.333803 14.2346 -90.4053 -1.59451 0.520654 -0.74964 -13.2656 0.487153 -0.771834 -35.8005 0.721875 -0.558518 -15.7878 0.721872 -0.558508 95.8548 4.3753 -111.123 -13.6294 14.5465 -34.7184 -15.1486 -38.9573 -28.0998 -45.2701 -3.98486 2.47553 -87.4397 -12.5999 71.7008 -5.67401 -24.3729 -70.4149 25.7591 33.9802 -24.0924 22.6503 2.4076 6.84262 32.3979 -1.42595 -7.28604 -3.92268 1.59003 6.44494 
39.7446 38.8999 -11.0962 -25.6217 -79.0264 -28.017 -30.1084 47.7385 -18.9753 -149.578 15.3913 13.4178 94.1794 14.2036 -2.17879 -6.65751 9.32356 -6.08086 45.2984 68.5454 -173.021 -144.055 -25.9474 -4.53764 122.371 -27.5529 7.26823 2.62282 -9.03885 16.142 0.340934 14.2711 -90.4228 -1.66738 0.528761 -0.782276 -13.3385 0.493821 -0.804807 -35.8733 0.739416 -0.587203 -15.8607 0.739421 -0.587221 95.3323 2.25427 -111.115 -17.9999 9.50348 -30.4904 -24.2824 -35.0934 -41.8757 -45.0542 -3.30121 0.637981 -87.8355 -12.8962 70.8567 -0.292474 -21.5932 -65.4746 29.1409 30.8234 -35.0321 26.9999 2.58635 5.81839 34.0749 -1.39674 -7.44428 -2.9732 1.8511 6.62826 
40.0357 39.0365 -12.5183 -27.5399 -80.294 -30.4085 -31.501 46.0972 -17.0612 -148.452 14.8605 13.6015 91.8447 13.3221 -1.6631 -6.08719 7.19779 -4.28309 41.9206 67.9074 -170.659 -143.614 -27.1475 -4.63266 118.241 -26.3562 5.74612 2.09688 -8.09182 14.6153 0.217397 14.2081 -90.2234 -1.54213 0.353395 -0.408566 -13.2131 0.335072 -0.423732 -35.7484 0.45984 -0.28347 -15.7357 0.45985 -0.283466 93.4309 -1.65246 -114.432 -21.9885 1.85673 -26.2014 -32.9654 -32.9741 -51.3086 -49.75 -3.34195 -0.618338 -88.5168 -14.0497 69.7605 8.62482 -16.6311 -59.1472 44.1523 35.1113 -52.3745 18.6505 1.74692 5.53859 32.8172 -1.76307 -9.51975 -1.05732 2.4116 7.68666 
40.1368 39.0282 -13.5685 -28.9942 -80.3091 -31.4901 -30.7721 44.8934 -17.5936 -147.358 12.815 13.3327 91.4675 13.0175 -2.08688 -5.48869 8.55974 -5.62971 41.4137 65.9092 -170.041 -143.02 -26.2017 -4.81387 116.984 -26.0961 4.9013 1.81585 -8.71164 15.4872 0.23981 14.0382 -90.3092 -1.20214 0.366725 -0.575797 -12.8732 0.341028 -0.591386 -35.4081 0.522814 -0.438972 -15.3954 0.52282 -0.438967 92.8879 -2.90704 -115.134 -24.7028 -6.77737 -24.5238 -43.3695 -33.4827 -58.9194 -40.86 -2.00896 -3.6173 -88.9787 -16.578 69.9449 15.7564 -9.60622 -57.8665 46.7076 33.9117 -57.9093 21.975 2.16167 6.09919 34.4643 -1.15353 -6.91265 -1.3475 1.96684 6.41943 
40.3573 39.4574 -14.4586 -29.1721 -80.3522 -31.8707 -31.3571 44.967 -17.2229 -145.834 12.6607 13.1102 90.6341 12.6674 -2.46792 -2.72024 7.56737 -5.16761 40.7846 65.3047 -169.033 -141.681 -24.7809 -4.79668 116.527 -25.728 4.89695 1.57835 -8.82406 15.6165 0.276365 13.8455 -90.2991 -0.816672 0.442408 -0.554459 -12.4877 0.417581 -0.573391 -35.0229 0.588585 -0.39587 -15.0102 0.588591 -0.395867 92.3565 -4.47296 -115.458 -26.2156 -14.7696 -25.2393 -43.2912 -31.5823 -59.2311 -52.0535 -5.29352 3.09498 -89.2372 -17.1029 69.6098 17.982 -4.10937 -59.3234 49.0247 36.1208 -60.3904 19.5239 2.02682 6.53433 36.5247 -1.32777 -6.63875 -2.98234 1.71978 6.05656 
40.5601 40.4038 -15.0994 -27.972 -79.7432 -30.7657 -32.6365 45.4541 -16.2539 -144.191 14.0602 12.9581 91.1867 13.5135 -0.921889 -4.44705 8.36611 -5.62055 41.2543 64.8153 -169.15 -139.843 -22.8321 -4.72559 116.266 -24.9653 5.76258 2.07764 -8.20637 14.7833 0.260184 13.5675 -90.2659 -0.260763 0.421212 -0.494666 -11.9317 0.399035 -0.512726 -34.467 0.550404 -0.345202 -14.4544 0.550406 -0.345212 91.3134 -5.96334 -117.397 -26.4238 -19.9931 -27.545 -43.3898 -36.5442 -57.0479 -46.0174 -3.76922 0.292508 -90.6926 -19.8822 67.7086 18.1676 -0.489604 -60.216 46.9729 39.8307 -58.3276 20.1006 2.00927 6.17055 36.9603 -1.09393 -6.09631 -2.47206 1.74435 4.99458 
40.7028 41.8458 -15.4792 -25.833 -78.5444 -28.2946 -33.1159 46.6927 -15.7778 -142.026 15.0103 12.3967 91.2446 13.3689 -1.76329 -5.43138 10.5104 -7.36194 42.5992 64.4766 -170.164 -137.506 -24.3227 -4.59463 114.357 -24.9984 4.05484 3.94527 -8.30125 15.2638 0.327873 13.3518 -90.2294 0.17091 0.568933 -0.419862 -11.5 0.549891 -0.444504 -34.0359 0.668807 -0.229458 -14.0233 0.668809 -0.229462 92.2571 -5.8805 -114.566 -22.9979 -17.9723 -36.0856 -34.8513 -41.6539 -50.0695 -52.4671 -6.79906 6.36214 -90.5412 -20.4425 68.3149 15.9761 0.913274 -64.4572 38.8205 42.0473 -51.2131 20.1633 2.59497 9.08741 39.4488 -1.62304 -6.80039 -3.39541 1.68215 5.20805 
40.8387 43.1498 -15.6962 -24.5994 -77.1163 -26.9452 -33.8524 47.5663 -14.825 -140.45 17.1353 12.067 91.5231 13.675 -1.50257 -5.93523 8.47066 -5.42973 43.112 64.1329 -170.288 -135.501 -26.7416 -4.4217 111.725 -25.1089 1.53238 6.40363 -8.79465 16.5474 0.368535 13.0503 -90.2079 0.773838 0.657225 -0.378642 -10.897 0.639927 -0.407214 -33.4334 0.740633 -0.163603 -13.4207 0.740635 -0.16361 91.7748 -7.05915 -115.064 -17.0484 -14.5265 -41.6988 -25.0013 -47.9745 -40.4676 -42.7126 -5.85492 7.41316 -90.833 -22.7305 68.7434 10.6188 2.8527 -67.4712 35.0635 44.8495 -46.7392 18.2162 3.00458 12.5465 40.4671 -1.65931 -5.52502 -3.3629 1.09521 4.34075 
41.0822 44.144 -15.8562 -23.6103 -75.8889 -26.3118 -34.6203 47.7437 -13.8144 -138.915 18.4471 11.8153 90.2094 12.9577 -2.13642 0.582839 6.69765 -4.78781 41.789 64.203 -168.941 -134.055 -27.7055 -4.2405 110.165 -24.1405 1.75951 5.77747 -8.38122 15.7611 0.379488 12.7403 -90.1895 1.39397 0.685379 -0.348448 -10.2769 0.669378 -0.378285 -32.8134 0.758412 -0.126348 -12.8007 0.758414 -0.126349 90.6831 -8.89016 -116.774 -9.8346 -11.9245 -44.5341 -15.273 -51.2766 -29.7774 -40.1328 -6.32249 10.051 -91.3839 -25.0386 68.6639 6.60009 5.92114 -70.5118 26.2881 46.6051 -37.5541 14.3266 2.33373 11.9349 42.0593 -1.11328 -3.16787 -4.27051 0.505545 2.43973 
41.22 44.7022 -15.8666 -23.8562 -74.7625 -26.3148 -33.659 48.0374 -14.7152 -138.117 17.8403 11.3877 89.6765 12.3225 -3.40731 -0.753509 7.33104 -5.28528 42.3151 63.4278 -169.197 -133.013 -27.9271 -4.21643 109.713 -24.1991 1.13326 4.55057 -10.7263 19.1898 0.40589 12.4723 -90.1523 1.92988 0.751766 -0.279353 -9.74087 0.73875 -0.312177 -32.2778 0.800961 -0.0404949 -12.2651 0.800967 -0.0404731 89.4275 -12.1729 -117.65 -9.011 -12.9229 -48.3983 -6.07041 -50.6383 -21.1897 -40.5969 -7.35013 13.2734 -91.8554 -24.8885 67.6429 2.45191 8.28274 -72.2725 14.1997 45.4067 -23.718 12.2191 1.69957 9.54414 44.5501 -1.39734 -3.72636 -5.43414 0.566463 3.05846 
